<svg xmlns="http://www.w3.org/2000/svg" id="Layer_1" data-name="Layer 1" viewBox="0 0 800.53 277.7"><path d="M366.54,105.53a22,22,0,0,0-8.56-7,25.33,25.33,0,0,0-10.62-2.33,26.6,26.6,0,0,0-11.75,2.6,29.31,29.31,0,0,0-9.27,7A31.93,31.93,0,0,0,320.28,116a34.12,34.12,0,0,0-2.17,12.08,35.29,35.29,0,0,0,2.17,12.51,31,31,0,0,0,6,10.08,28.16,28.16,0,0,0,9.21,6.77,29.75,29.75,0,0,0,24.43-.27,28.66,28.66,0,0,0,9.64-8l6.82,5.75a31.59,31.59,0,0,1-12.51,10.18,40.22,40.22,0,0,1-16.52,3.25,39,39,0,0,1-15.38-3,38,38,0,0,1-12.41-8.4,38.85,38.85,0,0,1-8.23-12.73,42.58,42.58,0,0,1-3-16.14,43.28,43.28,0,0,1,2.87-15.82A37.79,37.79,0,0,1,331.65,90.9a38.7,38.7,0,0,1,15.71-3.14,40.77,40.77,0,0,1,15,2.82,27.68,27.68,0,0,1,12.08,9.2Z" style="fill:#12122c"/><path d="M422.47,89.71H431l32.61,76.7H453l-7.79-18.85H406.86L399,166.41H388.67Zm4.11,11.7h-.21l-15.93,37.7h31.31Z" style="fill:#12122c"/><path d="M466.8,89.71h10.3l23.61,63.05h.22l24.37-63H535l-30,76.7h-8.78Z" style="fill:#12122c"/><path d="M552,89.71h48.21v8.45H561.08v24h36.51v8.45H561.08V158h41.06v8.45H552Z" style="fill:#12122c"/><path d="M649.62,89.71h8.56l32.61,76.7H680.17l-7.8-18.85H634l-7.91,18.85H615.82Zm4.12,11.7h-.22l-15.93,37.7H668.9Z" style="fill:#12122c"/><path d="M750.94,98.16H725.59v68.25h-9.1V98.16H691.14V89.71h59.8Z" style="fill:#12122c"/><path d="M319.93,209.52h4.94v37h19.05v4.58h-24Z" style="fill:#12122c"/><path d="M413.24,209.52h26.17v4.59H418.18v13H438v4.59H418.18v14.82h22.29v4.58H413.24Z" style="fill:#12122c"/><path d="M544.18,248.33a29.51,29.51,0,0,1-7.56,2.94,34.47,34.47,0,0,1-8,.94,24.27,24.27,0,0,1-8.94-1.59,20.73,20.73,0,0,1-7-4.46,20.17,20.17,0,0,1-4.62-6.91,23.52,23.52,0,0,1-1.64-8.91,22.56,22.56,0,0,1,1.73-9,20.3,20.3,0,0,1,4.8-6.88,22.14,22.14,0,0,1,7.11-4.44,23.84,23.84,0,0,1,8.76-1.59,25.18,25.18,0,0,1,7.91,1.24,16.81,16.81,0,0,1,6.79,4.23l-3.7,3.88a14.26,14.26,0,0,0-5.15-3.53,16.32,16.32,0,0,0-6.2-1.23,16.87,16.87,0,0,0-6.64,1.29,16.08,16.08,0,0,0-8.86,9.06,19.58,19.58,0,0,0,0,13.82,16.81,16.81,0,0,0,3.53,5.5,16,16,0,0,0,5.44,3.61,18.25,18.25,0,0,0,7,1.3,24.32,24.32,0,0,0,5.29-.62,20.74,20.74,0,0,0,5.06-1.8V232.45h-9.59v-4.58h14.53Z" style="fill:#12122c"/><path d="M632,209.52h4.64l17.7,41.63h-5.76l-4.23-10.23H623.5l-4.29,10.23h-5.59Zm2.23,6.35h-.11l-8.65,20.46h17Z" style="fill:#12122c"/><path d="M714,209.52H719v37h19v4.58H714Z" style="fill:#12122c"/><path d="M786.76,222A8.26,8.26,0,0,1,775,222a8.28,8.28,0,0,1,11.72-11.71,7.93,7.93,0,0,1,2.42,5.84A8,8,0,0,1,786.76,222Zm-10.89-10.9a6.86,6.86,0,0,0-2.08,5,7,7,0,0,0,2.06,5.07,7.11,7.11,0,0,0,10.09,0,7.21,7.21,0,0,0,0-10.11,7.09,7.09,0,0,0-10.07,0Zm4.87.46a6.91,6.91,0,0,1,2.48.33,2.25,2.25,0,0,1,1.41,2.3,2,2,0,0,1-.89,1.79,3.29,3.29,0,0,1-1.31.44,2.23,2.23,0,0,1,1.56.89,2.51,2.51,0,0,1,.49,1.41v.67c0,.21,0,.43,0,.67a2.06,2.06,0,0,0,.08.48l.06.11h-1.5l0-.09,0-.1,0-.3v-.72a2.24,2.24,0,0,0-.86-2.08,3.92,3.92,0,0,0-1.78-.29h-1.26v3.58h-1.6v-9.09Zm1.73,1.43a4.26,4.26,0,0,0-1.94-.34h-1.37V216h1.45a4.25,4.25,0,0,0,1.52-.2,1.64,1.64,0,0,0,.34-2.75Z" style="fill:#12122c"/><path d="M140.06,28.73A85.37,85.37,0,1,1,54.69,114.1a85.46,85.46,0,0,1,85.37-85.37m0-3.24a88.61,88.61,0,1,0,88.61,88.61,88.61,88.61,0,0,0-88.61-88.61Z" style="fill:#12122c"/><path d="M100,78.24A85.37,85.37,0,1,1,14.59,163.6,85.46,85.46,0,0,1,100,78.24M100,75a88.61,88.61,0,1,0,88.61,88.61A88.61,88.61,0,0,0,100,75Z" style="fill:#12122c"/><path d="M180.15,78.24A85.37,85.37,0,1,1,94.79,163.6a85.46,85.46,0,0,1,85.36-85.36m0-3.25a88.61,88.61,0,1,0,88.62,88.61A88.61,88.61,0,0,0,180.15,75Z" style="fill:#12122c"/></svg>